#!OML:ASF I:\Actors\actors\Patient Classification 1\Patient 1\Session 1\Subject1.ASF
:FULLY-SPECIFIED
:DEGREES
482
root -0.5073 17.5143 7.47126 5.57539 -6.35584 -7.33501
lowerback 1.47817 3.26768 5.26863
upperback -8.15545 4.76433 0.334051
thorax -9.0584 1.96009 -3.0057
lowerneck -14.1986 0.291559 3.32631
upperneck 33.2481 -0.75207 0.64407
head 13.6068 0.191026 -0.441369
rclavicle 6.95746e-015 -3.02153e-014
rhumerus -15.0048 51.4444 -94.0183
rradius 94.6361
rwrist -2.57541
rhand 11.5606 -58.4615
rfingers 7.12502
rthumb 36.605 -84.6271
lclavicle 6.95746e-015 -3.02153e-014
lhumerus -44.5616 -21.4504 103.686
lradius 108.781
lwrist 55.4013
lhand -40.192 -2.96909
lfingers 7.12502
lthumb -13.1529 26.5961
rfemur -0.517846 22.262 25.4079
rtibia 2.09232
rfoot -10.8823 -16.8385
rtoes -1.76949
lfemur 10.3775 -39.184 -18.557
ltibia -3.93281
lfoot -24.9396 52.4233
ltoes 16.542
483
root -0.507615 17.5168 7.47223 5.61125 -6.17117 -7.271
lowerback 1.4805 3.18093 5.22061
upperback -8.15907 4.64597 0.345508
thorax -9.0781 1.90533 -2.95827
lowerneck -14.1965 0.378728 3.47906
upperneck 33.2695 -0.562185 0.341247
head 13.616 0.252456 -0.558822
rclavicle -3.34952e-014 6.36111e-015
rhumerus -16.5269 51.7771 -95.3406
rradius 94.9043
rwrist -2.71006
rhand 10.096 -57.1152
rfingers 7.12502
rthumb 35.2174 -83.6203
lclavicle -3.34952e-014 6.36111e-015
lhumerus -44.7604 -21.0154 103.636
lradius 108.385
lwrist 55.4017
lhand -41.1643 -2.64528
lfingers 7.12502
lthumb -14.09 26.857
rfemur -0.541048 22.1955 25.3198
rtibia 2.06889
rfoot -10.932 -16.9498
rtoes -1.50205
lfemur 10.2528 -39.255 -18.5477
ltibia -3.92446
lfoot -24.626 52.3838
ltoes 16.1086
484
root -0.509367 17.5184 7.47285 5.61797 -6.06857 -7.27213
lowerback 1.53768 3.09798 5.24761
upperback -8.16199 4.54095 0.355292
thorax -9.12339 1.85034 -2.95856
lowerneck -14.2536 0.510478 3.72258
upperneck 33.3614 -0.337966 0.0404983
head 13.6719 0.341909 -0.686305
rclavicle -2.74323e-014 -1.51076e-014
rhumerus -17.8569 52.3014 -96.71
rradius 94.8816
rwrist -0.603494
rhand 8.29649 -55.117
rfingers 7.12502
rthumb 33.5089 -82.0084
lclavicle -2.74323e-014 -1.51076e-014
lhumerus -45.0094 -20.7086 103.626
lradius 107.982
lwrist 55.5711
lhand -41.8878 -2.54084
lfingers 7.12502
lthumb -14.7871 26.9116
rfemur -0.516723 22.2518 25.3444
rtibia 2.04226
rfoot -10.9198 -17.1
rtoes -1.64451
lfemur 10.2777 -39.3779 -18.5442
ltibia -3.99217
lfoot -24.57 52.424
ltoes 16.0907
485
root -0.510954 17.5189 7.47284 5.63216 -6.03845 -7.31204
lowerback 1.55953 3.02163 5.30251
upperback -8.13982 4.44473 0.388741
thorax -9.11932 1.80078 -2.94644
lowerneck -14.3188 0.651417 3.95705
upperneck 33.4256 -0.116385 -0.20751
head 13.7194 0.435558 -0.791723
rclavicle -1.19271e-014 -5.56597e-015
rhumerus -18.9176 53.0602 -97.9221
rradius 94.6973
rwrist 2.43852
rhand 6.21711 -53.0966
rfingers 7.12502
rthumb 31.5302 -80.3956
lclavicle -1.19271e-014 -5.56597e-015
lhumerus -45.225 -20.5683 103.682
lradius 107.635
lwrist 55.8371
lhand -42.2941 -2.69884
lfingers 7.12502
lthumb -15.1785 26.7245
rfemur -0.479711 22.4086 25.4241
rtibia 1.98591
rfoot -10.8791 -17.2828
rtoes -2.0099
lfemur 10.3244 -39.4867 -18.5153
ltibia -4.06207
lfoot -24.5727 52.5128
ltoes 16.253
486
root -0.511694 17.5187 7.47238 5.67907 -6.05344 -7.32021
lowerback 1.51899 2.96061 5.32145
upperback -8.10455 4.36278 0.43517
thorax -9.06563 1.76359 -2.89735
lowerneck -14.3799 0.76287 4.0816
upperneck 33.449 0.072767 -0.393007
head 13.7481 0.508699 -0.857979
rclavicle -5.52621e-014 -1.74931e-014
rhumerus -19.6314 53.7444 -98.8522
rradius 94.5583
rwrist 5.06999
rhand 4.72503 -51.8268
rfingers 7.12502
rthumb 30.1077 -79.3945
lclavicle -5.52621e-014 -1.74931e-014
lhumerus -45.3559 -20.5153 103.764
lradius 107.395
lwrist 56.4296
lhand -43.0978 -3.154
lfingers 7.12502
lthumb -15.9526 26.2091
rfemur -0.500435 22.4901 25.4279
rtibia 1.93101
rfoot -10.8861 -17.3534
rtoes -1.96957
lfemur 10.305 -39.5472 -18.4912
ltibia -4.08926
lfoot -24.7011 52.5372
ltoes 16.5111
487
root -0.511895 17.5183 7.47205 5.71136 -6.13405 -7.27522
lowerback 1.49257 2.94084 5.28933
upperback -8.08249 4.33235 0.451615
thorax -9.03118 1.75326 -2.85733
lowerneck -14.3546 0.847923 4.18308
upperneck 33.4242 0.216204 -0.524885
head 13.7358 0.565585 -0.905704
rclavicle 6.16232e-015 -3.18055e-015
rhumerus -20.0956 53.9876 -99.5771
rradius 94.4633
rwrist 7.04839
rhand 3.95289 -51.0324
rfingers 7.12502
rthumb 29.3707 -78.7318
lclavicle 6.16232e-015 -3.18055e-015
lhumerus -45.4386 -20.3852 103.721
lradius 107.25
lwrist 57.4357
lhand -44.0256 -3.75204
lfingers 7.12502
lthumb -16.8458 25.5373
rfemur -0.549046 22.4712 25.3486
rtibia 1.9176
rfoot -10.928 -17.2702
rtoes -1.55452
lfemur 10.3316 -39.5988 -18.5767
ltibia -4.10485
lfoot -24.9991 52.5976
ltoes 16.6999
488
root -0.509433 17.5152 7.47717 5.67376 -6.29336 -7.12042
lowerback 1.45816 2.96361 5.18902
upperback -8.04366 4.34868 0.405165
thorax -8.9684 1.76943 -2.84868
lowerneck -14.2701 0.933191 4.34075
upperneck 33.3616 0.330592 -0.609967
head 13.6942 0.623022 -0.948883
rclavicle 1.59028e-014 -6.36111e-015
rhumerus -20.4072 53.7947 -100.103
rradius 94.4176
rwrist 8.68355
rhand 2.90917 -50.142
rfingers 7.12502
rthumb 28.3738 -78.0117
lclavicle 1.59028e-014 -6.36111e-015
lhumerus -45.4851 -20.063 103.522
lradius 107.169
lwrist 59.0328
lhand -44.0577 -4.59912
lfingers 7.12502
lthumb -16.8768 24.6875
rfemur -0.48268 22.3036 25.1511
rtibia 1.84254
rfoot -10.86 -17.0083
rtoes -1.61636
lfemur 10.6089 -39.8126 -19.0322
ltibia -4.12715
lfoot -25.5807 52.8856
ltoes 16.997
489
root -0.505525 17.5118 7.48144 5.66558 -6.45323 -7.01023
lowerback 1.36292 3.02261 5.08361
upperback -7.97394 4.41152 0.400752
thorax -8.83536 1.81365 -2.79128
lowerneck -14.3001 0.96806 4.37709
upperneck 33.3163 0.370062 -0.609208
head 13.6826 0.644514 -0.948377
rclavicle -1.48095e-014 3.97569e-016
rhumerus -20.642 52.9575 -100.362
rradius 94.5835
rwrist 11.7738
rhand 2.17212 -49.1253
rfingers 7.12502
rthumb 27.6692 -77.1102
lclavicle -1.48095e-014 3.97569e-016
lhumerus -45.4658 -19.6036 103.297
lradius 107.1
lwrist 61.2303
lhand -43.3282 -5.66314
lfingers 7.12502
lthumb -16.1744 23.682
rfemur -0.468132 22.0824 24.9803
rtibia 1.79527
rfoot -10.7371 -16.7009
rtoes -2.1928
lfemur 10.8269 -40.0466 -19.4062
ltibia -4.12067
lfoot -26.1732 53.1668
ltoes 17.4682
490
root -0.505716 17.5124 7.46937 5.73439 -6.61463 -7.11465
lowerback 1.45032 3.09566 5.1174
upperback -7.94414 4.52034 0.450301
thorax -8.84717 1.86669 -2.77062
lowerneck -14.4378 0.953367 4.31733
upperneck 33.2958 0.328583 -0.523662
head 13.7026 0.630337 -0.910073
rclavicle 1.5704e-014 2.0276e-014
rhumerus -21.2072 51.4153 -100.935
rradius 95.0932
rwrist 16.9318
rhand 1.27732 -47.8896
rfingers 7.12502
rthumb 26.8132 -76.0088
lclavicle 1.5704e-014 2.0276e-014
lhumerus -45.4115 -19.199 103.001
lradius 107.007
lwrist 63.8047
lhand -42.6812 -7.3451
lfingers 7.12502
lthumb -15.5513 22.0496
rfemur -0.702108 22.2217 25.0384
rtibia 1.97707
rfoot -10.7774 -16.6642
rtoes -2.19167
lfemur 10.5974 -39.9117 -19.0995
ltibia -4.05134
lfoot -26.2698 53.1209
ltoes 17.6548
491
root -0.50792 17.5128 7.4461 5.7115 -6.88266 -6.99364
lowerback 1.93647 3.18619 5.16242
upperback -8.01428 4.66447 0.232278
thorax -9.18002 1.91086 -3.07302
lowerneck -14.5323 0.93688 4.3967
upperneck 33.2986 0.197768 -0.304461
head 13.723 0.613326 -0.856986
rclavicle 2.38542e-014 1.59028e-015
rhumerus -21.1199 51.2874 -100.985
rradius 95.8973
rwrist 21.3549
rhand -1.26814 -47.2003
rfingers 7.12502
rthumb 24.3752 -75.6701
lclavicle 2.38542e-014 1.59028e-015
lhumerus -45.4882 -19.0628 102.478
lradius 106.925
lwrist 66.1884
lhand -42.5074 -9.82833
lfingers 7.12502
lthumb -15.384 19.5793
rfemur -0.959575 22.6819 24.8487
rtibia 2.23346
rfoot -10.8835 -16.8484
rtoes -1.96292
lfemur 10.2815 -39.5941 -18.9611
ltibia -3.89515
lfoot -26.2827 52.9479
ltoes 17.8664
492
root -0.506477 17.513 7.46298 5.8461 -6.77961 -7.20332
lowerback 1.72899 3.17867 5.24339
upperback -8.0959 4.6625 0.402752
thorax -9.15729 1.91137 -2.92619
lowerneck -14.5281 0.91101 4.29844
upperneck 33.3956 0.195671 -0.324444
head 13.7636 0.599103 -0.848496
rclavicle -3.73715e-014 -2.94201e-014
rhumerus -21.3143 51.3574 -100.711
rradius 96.8619
rwrist 26.0157
rhand -3.01875 -45.9368
rfingers 7.12502
rthumb 22.696 -74.6221
lclavicle -3.73715e-014 -2.94201e-014
lhumerus -45.6973 -18.5617 102.468
lradius 106.84
lwrist 67.3151
lhand -42.9109 -11.5836
lfingers 7.12502
lthumb -15.7726 17.7937
rfemur -0.858475 22.6084 25.1131
rtibia 2.01781
rfoot -10.8622 -16.8744
rtoes -2.1954
lfemur 10.1932 -39.3933 -18.6532
ltibia -3.95401
lfoot -25.8127 52.7712
ltoes 17.5607
493
root -0.504622 17.5138 7.46876 5.89452 -6.73839 -7.29142
lowerback 1.66104 3.17825 5.36179
upperback -8.12382 4.6686 0.433853
thorax -9.14258 1.90709 -2.95549
lowerneck -14.4804 0.905875 4.29216
upperneck 33.3973 0.189879 -0.31617
head 13.7536 0.597028 -0.845022
rclavicle 1.42131e-014 1.07344e-014
rhumerus -21.225 51.47 -100.322
rradius 97.8926
rwrist 30.035
rhand -4.32408 -44.8033
rfingers 7.12502
rthumb 21.4427 -73.6366
lclavicle 1.42131e-014 1.07344e-014
lhumerus -45.7397 -18.1298 102.266
lradius 106.688
lwrist 67.323
lhand -43.7061 -11.3649
lfingers 7.12502
lthumb -16.5383 17.9503
rfemur -0.807452 22.6299 25.2255
rtibia 1.91488
rfoot -10.8283 -16.9371
rtoes -2.19537
lfemur 10.1137 -39.2419 -18.4805
ltibia -3.96616
lfoot -25.5686 52.6339
ltoes 17.2915
